PathFileType  4	(X/Y/Z) C:\Inversekin\DARPA\DARPA11\Files_W_HJCs\
DataRate	CameraRate	NumFrames	NumMarkers	Units	OrigDataRate	OrigDataStartFrame	OrigNumFrames
  100.0		  100.0		    4		     41		 mm	  100.0	      149	    238
Frame#	Time	R.Shoulder			L.Shoulder			R.Clavicle			L.Clavicle			R.Biceps			R.Elbow			R.Forearm			R.Wrist			L.Biceps			L.Elbow			L.Forearm			L.Wrist			R.ASIS			L.ASIS			R.PSIS			S2			L.PSIS			R.TH1			R.TH2			R.TH3			R.Knee			R.SH1			R.SH2			R.SH3			R.SH4			R.Ankle			R.Heel			R.MT5			R.Toe			L.TH1			L.TH2			L.TH3			L.TH4			L.Knee			L.SH1			L.SH2			L.SH3			L.Ankle			L.Heel			L.MT5			L.Toe			
		X1	Y1	Z1	X2	Y2	Z2	X3	Y3	Z3	X4	Y4	Z4	X5	Y5	Z5	X6	Y6	Z6	X7	Y7	Z7	X8	Y8	Z8	X9	Y9	Z9	X10	Y10	Z10	X11	Y11	Z11	X12	Y12	Z12	X13	Y13	Z13	X14	Y14	Z14	X15	Y15	Z15	X16	Y16	Z16	X17	Y17	Z17	X18	Y18	Z18	X19	Y19	Z19	X20	Y20	Z20	X21	Y21	Z21	X22	Y22	Z22	X23	Y23	Z23	X24	Y24	Z24	X25	Y25	Z25	X26	Y26	Z26	X27	Y27	Z27	X28	Y28	Z28	X29	Y29	Z29	X30	Y30	Z30	X31	Y31	Z31	X32	Y32	Z32	X33	Y33	Z33	X34	Y34	Z34	X35	Y35	Z35	X36	Y36	Z36	X37	Y37	Z37	X38	Y38	Z38	X39	Y39	Z39	X40	Y40	Z40	X41	Y41	Z41	

149	1.48000	1203.136	1487.456	-82.109	1248.898	1511.970	-422.735	1283.620	1454.586	-222.209	1288.579	1455.747	-272.485	1187.930	1221.225	-16.124	1121.322	1138.799	-0.059	1187.275	1008.332	31.951	1216.967	887.692	46.215	1287.811	1290.355	-507.982	1284.450	1166.395	-539.783	1397.556	1081.000	-516.745	1477.129	1006.978	-483.984	1307.310	994.676	-141.005	1297.900	979.807	-396.455	1093.956	991.184	-207.405	1081.419	971.274	-252.141	1091.737	995.508	-298.154	1347.878	780.148	-71.655	1251.160	730.488	-62.481	1297.338	614.391	-97.006	1386.224	513.908	-126.999	1426.670	427.755	-124.443	1453.107	318.822	-120.961	1347.119	402.553	-122.850	1374.914	286.009	-126.667	1483.487	108.786	-152.993	1433.340	23.722	-205.619	1613.558	63.029	-115.590	1709.590	128.669	-210.520	1281.412	750.313	-423.885	1251.313	626.641	-391.184	1186.389	769.237	-471.377	1140.311	650.951	-427.000	1108.676	508.854	-392.025	1081.507	393.939	-379.319	1005.860	450.315	-409.456	937.723	356.844	-397.770	869.029	152.789	-364.053	755.623	105.375	-319.902	934.748	39.724	-388.344	1034.237	49.334	-283.252
150	1.49000	1217.003	1487.665	-79.967	1262.063	1512.474	-420.696	1296.595	1455.065	-220.022	1301.859	1456.466	-270.410	1201.825	1221.111	-14.243	1135.559	1138.523	1.326	1201.632	1008.304	32.850	1231.712	887.713	46.286	1300.233	1290.749	-505.809	1295.686	1166.702	-537.444	1407.778	1079.665	-515.372	1486.550	1004.194	-483.206	1322.532	994.979	-140.540	1311.585	979.875	-395.578	1109.244	992.295	-205.594	1096.566	972.180	-250.277	1106.900	995.924	-296.482	1362.026	779.770	-71.884	1264.701	731.177	-62.148	1308.839	614.434	-97.050	1398.121	513.959	-126.187	1439.813	427.205	-124.073	1465.001	317.867	-120.292	1360.051	402.916	-121.547	1386.338	286.137	-125.402	1489.515	107.077	-152.015	1433.279	25.815	-204.713	1616.876	54.767	-117.534	1714.528	118.489	-213.389	1296.375	750.787	-423.498	1266.800	626.727	-391.476	1201.127	769.939	-470.473	1155.916	650.954	-427.020	1125.425	508.573	-393.210	1094.808	393.889	-381.227	1020.947	452.509	-410.299	949.596	360.976	-398.134	875.676	158.259	-365.415	760.707	116.048	-319.804	935.935	40.381	-389.019	1034.323	49.443	-283.476
151	1.50000	1230.975	1487.945	-77.984	1275.177	1513.455	-418.805	1309.001	1455.067	-218.091	1315.787	1457.594	-268.313	1215.586	1221.403	-12.375	1150.194	1138.711	2.576	1216.251	1008.257	33.685	1246.760	887.838	46.719	1312.620	1291.352	-503.798	1307.154	1167.270	-535.139	1417.765	1078.385	-514.181	1495.126	1001.418	-482.689	1338.152	995.659	-140.398	1326.144	980.850	-394.686	1124.574	993.507	-203.760	1111.365	973.263	-248.447	1121.594	996.870	-294.800	1376.066	779.885	-72.085	1278.130	732.535	-62.040	1320.491	614.890	-96.151	1411.881	514.466	-125.708	1453.596	426.931	-123.526	1475.401	316.464	-119.490	1372.919	404.416	-119.704	1397.110	286.477	-124.433	1494.459	105.856	-151.403	1434.564	27.776	-204.787	1620.224	49.360	-118.408	1719.575	109.087	-214.561	1312.046	751.913	-423.311	1283.472	627.222	-392.268	1216.741	770.761	-469.591	1172.530	650.852	-427.337	1143.081	508.074	-394.770	1109.956	394.187	-383.547	1037.087	455.104	-410.959	963.441	365.831	-398.180	883.729	164.233	-366.482	768.210	128.286	-319.392	936.427	42.036	-388.261	1034.405	49.448	-283.877
152	1.51000	1244.944	1488.587	-75.844	1287.998	1514.593	-416.590	1322.438	1456.031	-216.278	1328.596	1458.424	-266.421	1230.082	1221.886	-10.570	1164.715	1139.018	4.199	1231.724	1008.686	34.615	1262.263	888.142	47.190	1324.297	1292.290	-501.981	1318.229	1168.124	-532.975	1427.453	1077.439	-513.107	1503.590	998.789	-482.467	1353.416	996.598	-140.326	1340.166	981.816	-393.914	1138.884	995.197	-201.757	1125.913	974.660	-246.468	1135.862	998.046	-292.979	1390.273	780.321	-72.196	1291.624	734.063	-61.680	1333.436	615.715	-94.370	1427.695	515.225	-125.631	1466.708	427.181	-124.310	1485.174	315.618	-119.456	1385.052	406.192	-117.676	1405.980	287.842	-122.796	1498.614	104.728	-150.714	1436.146	28.858	-204.495	1623.266	44.686	-118.164	1724.299	101.034	-213.400	1328.483	753.128	-423.134	1301.488	627.743	-393.419	1232.856	771.832	-468.788	1190.370	650.641	-428.243	1162.890	507.554	-396.654	1126.523	394.721	-386.665	1054.735	458.250	-411.302	978.451	371.231	-397.924	893.238	170.867	-367.568	776.982	142.102	-318.862	938.338	44.032	-388.252	1034.982	49.549	-284.257
